# xmcd CD database file
#
# Track frame offsets:
#	150
#	14940
#	36682
#
# Disc length: 663 seconds
#
# Revision: 0
# Processed by: cddbd v1.5.1PL2 Copyright (c) Steve Scherf et al.
# Submitted via: CDex 1.51
#
DISCID=2a029503
DTITLE=Lorette Velvette - The only one
DYEAR=1995
DGENRE=Blues
TTITLE0=The only one 
TTITLE1=Special Rider
TTITLE2=Godforsaken Town
EXTD=YEAR: 1995
EXTT0=
EXTT1=
EXTT2=
PLAYORDER=
